<svg width="50" height="50" viewBox="0 0 50 50" fill="none" xmlns="http://www.w3.org/2000/svg">
<g id="Frame" clip-path="url(#clip0_1_547)">
<g id="Group">
<path id="Vector" d="M25 2.02084C29.5461 2.01995 33.9905 3.36727 37.7707 5.89241C41.5511 8.41754 44.4977 12.007 46.2377 16.207C47.978 20.4068 48.4334 25.0284 47.5468 29.4873C46.66 33.9461 44.4709 38.0418 41.2564 41.2564C38.0418 44.4709 33.9461 46.66 29.4873 47.5468C25.0284 48.4334 20.4068 47.9779 16.207 46.2377C12.0071 44.4977 8.41755 41.5511 5.89242 37.7707C3.36728 33.9904 2.01996 29.5461 2.02085 25C2.02916 18.9081 4.45285 13.0681 8.76046 8.76045C13.0681 4.45284 18.9081 2.02915 25 2.02084ZM25 0C20.0555 0 15.222 1.46622 11.1108 4.21325C6.99953 6.96029 3.79521 10.8648 1.90302 15.4329C0.0108322 20.0011 -0.484251 25.0277 0.480378 29.8773C1.44501 34.7268 3.82603 39.1814 7.32235 42.6777C10.8186 46.1741 15.2732 48.555 20.1228 49.5195C24.9723 50.4843 29.9989 49.9891 34.567 48.097C39.1352 46.2048 43.0398 43.0005 45.7868 38.8893C48.5339 34.778 50 29.9445 50 25C50 18.3696 47.3661 12.0107 42.6777 7.32234C37.9893 2.63393 31.6305 0 25 0Z" fill="white"/>
<path id="Vector_2" d="M38.1717 25L17.3931 11.3436C17.42 31.9313 17.3931 21.8295 17.3931 38.6563L38.1717 25Z" fill="white"/>
</g>
</g>
<defs>
<clipPath id="clip0_1_547">
<rect width="50" height="50" fill="white"/>
</clipPath>
</defs>
</svg>
