<svg width="68" height="48" viewBox="0 0 68 48" fill="none" xmlns="http://www.w3.org/2000/svg">
<g id="youtube icon" clip-path="url(#clip0_1_1407)">
<path id="Vector" d="M66.599 7.6755C65.8151 4.76246 63.5184 2.46627 60.6058 1.68185C55.2845 0.225586 33.9993 0.225586 33.9993 0.225586C33.9993 0.225586 12.7147 0.225586 7.39337 1.62634C4.53688 2.41024 2.18413 4.76298 1.40023 7.6755C0 12.9963 0 24.0311 0 24.0311C0 24.0311 0 35.1214 1.40023 40.3867C2.18465 43.2992 4.48085 45.5959 7.39389 46.3803C12.7707 47.8366 33.9999 47.8366 33.9999 47.8366C33.9999 47.8366 55.2845 47.8366 60.6058 46.4358C63.5189 45.6519 65.8151 43.3552 66.5995 40.4427C67.9997 35.1214 67.9997 24.0871 67.9997 24.0871C67.9997 24.0871 68.0557 12.9963 66.599 7.6755Z" fill="#212121" fill-opacity="0.8"/>
<path id="Vector_2" d="M27.2223 34.2261L44.9221 24.0317L27.2223 13.8373V34.2261Z" fill="white"/>
</g>
<defs>
<clipPath id="clip0_1_1407">
<rect width="68" height="48" fill="white" transform="translate(0 -0.000366211)"/>
</clipPath>
</defs>
</svg>
